nColumns=19
nRows=56
DataType=double
version=3
OpenSimVersion=4.1
endheader
time	ground_force_1_vx	ground_force_1_vy	ground_force_1_vz	ground_force_1_px	ground_force_1_py	ground_force_1_pz	ground_force_1_mx	ground_force_1_my	ground_force_1_mz	ground_force_2_vx	ground_force_2_vy	ground_force_2_vz	ground_force_2_px	ground_force_2_py	ground_force_2_pz	ground_force_2_mx	ground_force_2_my	ground_force_2_mz
0	-56.8732	322.327	-0.527696	0.098815	0.006	-0.123702	0	0.374644	0	0	0	0	0.692311	0	-0.188327	0	0	0
0.01	-69.0243	355.164	-1.02118	0.103321	0.006	-0.123876	0	0.342242	0	0	0	0	0.692311	0	-0.188327	0	0	0
0.02	-81.4815	390.709	-1.85782	0.108472	0.006	-0.124009	0	0.312801	0	0	0	0	0.692311	0	-0.188327	0	0	0
0.03	-93.6711	427.681	-3.0974	0.113379	0.006	-0.12406	0	0.285785	0	0	0	0	0.692311	0	-0.188327	0	0	0
0.04	-105.005	464.55	-4.7879	0.117994	0.006	-0.124022	0	0.257928	0	0	0	0	0.692311	0	-0.188327	0	0	0
0.05	-114.922	499.756	-6.95965	0.122294	0.006	-0.123894	0	0.225279	0	0	0	0	0.692311	0	-0.188327	0	0	0
0.06	-122.953	531.896	-9.59853	0.126275	0.006	-0.123676	0	0.185205	0	0	0	0	0.692311	0	-0.188327	0	0	0
0.07	-128.774	559.835	-12.6254	0.129949	0.006	-0.123374	0	0.138129	0	0	0	0	0.692311	0	-0.188327	0	0	0
0.08	-132.225	582.773	-15.8982	0.13334	0.006	-0.122998	0	0.087202	0	0	0	0	0.692311	0	-0.188327	0	0	0
0.09	-133.294	600.238	-19.232	0.136477	0.006	-0.122562	0	0.036664	0	0	0	0	0.692311	0	-0.188327	0	0	0
0.1	-132.086	612.046	-22.4255	0.139395	0.006	-0.122078	0	-0.00943	0	0	0	0	0.692311	0	-0.188327	0	0	0
0.11	-128.795	618.257	-25.2908	0.14213	0.006	-0.121559	0	-0.048445	0	0	0	0	0.692311	0	-0.188327	0	0	0
0.12	-123.686	619.123	-27.6824	0.14472	0.006	-0.121014	0	-0.080262	0	0	0	0	0.692311	0	-0.188327	0	0	0
0.13	-117.07	615.042	-29.509	0.147207	0.006	-0.120447	0	-0.106843	0	0	0	0	0.692311	0	-0.188327	0	0	0
0.14	-109.285	606.53	-30.7376	0.149637	0.006	-0.119859	0	-0.131566	0	0	0	0	0.692311	0	-0.188327	0	0	0
0.15	-100.678	594.202	-31.3907	0.152055	0.006	-0.119248	0	-0.158531	0	0	0	0	0.692311	0	-0.188327	0	0	0
0.16	-91.5832	578.761	-31.5355	0.15451	0.006	-0.118609	0	-0.191783	0	0	0	0	0.692311	0	-0.188327	0	0	0
0.17	-82.3076	560.976	-31.27	0.15705	0.006	-0.117935	0	-0.23479	0	0	0	0	0.692311	0	-0.188327	0	0	0
0.18	-73.1181	541.656	-30.7067	0.159721	0.006	-0.117223	0	-0.290015	0	0	0	0	0.692311	0	-0.188327	0	0	0
0.19	-64.2329	521.617	-29.9553	0.162566	0.006	-0.116472	0	-0.358695	0	0	0	0	0.692311	0	-0.188327	0	0	0
0.2	-55.8194	501.638	-29.1103	0.165624	0.006	-0.115684	0	-0.44102	0	0	0	0	0.692311	0	-0.188327	0	0	0
0.21	-47.9946	482.431	-28.2427	0.16892	0.006	-0.114871	0	-0.536483	0	0	0	0	0.692311	0	-0.188327	0	0	0
0.22	-40.8263	464.613	-27.3992	0.172469	0.006	-0.114053	0	-0.644121	0	0	0	0	0.692311	0	-0.188327	0	0	0
0.23	-34.3351	448.695	-26.6067	0.176268	0.006	-0.113252	0	-0.762971	0	0	0	0	0.692311	0	-0.188327	0	0	0
0.24	-28.4983	435.079	-25.8802	0.180293	0.006	-0.112498	0	-0.892298	0	0	0	0	0.692311	0	-0.188327	0	0	0
0.25	-23.2576	424.06	-25.2309	0.184502	0.006	-0.111822	0	-1.0315	0	0	0	0	0.692311	0	-0.188327	0	0	0
0.26	-18.5292	415.824	-24.6712	0.188838	0.006	-0.11125	0	-1.17974	0	0	0	0	0.692311	0	-0.188327	0	0	0
0.27	-14.2139	410.454	-24.2141	0.193234	0.006	-0.110803	0	-1.33556	0	0	0	0	0.692311	0	-0.188327	0	0	0
0.28	-10.2057	407.946	-23.8723	0.197622	0.006	-0.110495	0	-1.49664	0	0	0	0	0.692311	0	-0.188327	0	0	0
0.29	-6.39941	408.219	-23.6551	0.201948	0.006	-0.11033	0	-1.65979	0	0	0	0	0.692311	0	-0.188327	0	0	0
0.3	-2.69679	411.136	-23.5658	0.20617	0.006	-0.110304	0	-1.82114	0	0	0	0	0.692311	0	-0.188327	0	0	0
0.31	0.991882	416.511	-23.6004	0.210266	0.006	-0.110406	0	-1.97636	0	0	0	0	0.692311	0	-0.188327	0	0	0
0.32	4.7476	424.123	-23.7499	0.21423	0.006	-0.110622	0	-2.12094	0	0	0	0	0.692311	0	-0.188327	0	0	0
0.33	8.6419	433.725	-24.002	0.218068	0.006	-0.110932	0	-2.25037	0	0	0	0	0.692311	0	-0.188327	0	0	0
0.34	12.737	445.047	-24.3448	0.221797	0.006	-0.111317	0	-2.36005	0	0	0	0	0.692311	0	-0.188327	0	0	0
0.35	17.0871	457.8	-24.7678	0.225433	0.006	-0.11176	0	-2.4452	0	0	0	0	0.692311	0	-0.188327	0	0	0
0.36	21.7378	471.671	-25.2603	0.228994	0.006	-0.112243	0	-2.50091	0	0	0	0	0.692311	0	-0.188327	0	0	0
0.37	26.7251	486.323	-25.8084	0.232493	0.006	-0.112753	0	-2.52255	0	0	0	0	0.692311	0	-0.188327	0	0	0
0.38	32.0739	501.382	-26.392	0.235937	0.006	-0.113279	0	-2.50624	0	0	0	0	0.692311	0	-0.188327	0	0	0
0.39	37.7954	516.436	-26.9826	0.239329	0.006	-0.113814	0	-2.44942	0	0	0	0	0.692311	0	-0.188327	0	0	0
0.4	43.8849	531.02	-27.5425	0.242665	0.006	-0.114352	0	-2.35121	0	0	0	0	0.692311	0	-0.188327	0	0	0
0.41	50.3188	544.61	-28.0257	0.24594	0.006	-0.11489	0	-2.21289	0	0	0	0	0.692311	0	-0.188327	0	0	0
0.42	57.0506	556.626	-28.379	0.249147	0.006	-0.115425	0	-2.03818	0	0	0	0	0.692311	0	-0.188327	0	0	0
0.43	64.0062	566.435	-28.5456	0.25228	0.006	-0.115953	0	-1.8333	0	0	0	0	0.692311	0	-0.188327	0	0	0
0.44	71.0771	573.381	-28.4698	0.255333	0.006	-0.116474	0	-1.60674	0	0	0	0	0.692311	0	-0.188327	0	0	0
0.45	78.1119	576.809	-28.1008	0.258302	0.006	-0.116986	0	-1.36858	0	0	0	0	0.692311	0	-0.188327	0	0	0
0.46	84.916	576.093	-27.3969	0.261188	0.006	-0.117487	0	-1.12975	0	-0.391416	27.231	-5.36878	0.707648	0.006	-0.196717	0	0.120238	0
0.47	91.2561	570.664	-26.3273	0.263993	0.006	-0.117977	0	-0.901261	0	-3.05588	47.4965	-5.65515	0.74361	0.006	-0.215829	0	0.230512	0
0.48	96.865	560.049	-24.8751	0.266726	0.006	-0.118456	0	-0.693315	0	-6.72552	72.6434	-5.75695	0.762094	0.006	-0.225021	0	0.291069	0
0.49	101.45	543.904	-23.044	0.269393	0.006	-0.118923	0	-0.514172	0	-11.5527	102.857	-5.58782	0.773775	0.006	-0.230362	0	0.335205	0
0.5	104.711	522.058	-20.8635	0.272009	0.006	-0.119377	0	-0.368935	0	-17.6673	138.021	-5.04497	0.782195	0.006	-0.233844	0	0.373751	0
0.51	106.362	494.562	-18.3918	0.274587	0.006	-0.119814	0	-0.258935	0	-25.1498	177.619	-4.01191	0.788883	0.006	-0.236316	0	0.410762	0
0.52	106.163	461.725	-15.7132	0.277145	0.006	-0.120233	0	-0.181894	0	-33.9214	220.809	-2.37477	0.794611	0.006	-0.238198	0	0.447349	0
0.53	103.947	424.149	-12.9328	0.279705	0.006	-0.120628	0	-0.132816	0	-43.6651	266.65	-0.0493963	0.799777	0.006	-0.239719	0	0.481952	0
0.54	99.6645	382.727	-10.1695	0.28229	0.006	-0.120997	0	-0.105088	0	-53.9514	314.111	2.99594	0.804586	0.006	-0.241005	0	0.510601	0
0.55	93.4144	338.615	-7.54638	0.284932	0.006	-0.121335	0	-0.091852	0	-64.3309	361.97	6.727	0.809146	0.006	-0.242123	0	0.527974	0
